<svg width="150" height="30" viewBox="0 0 150 30" fill="none" xmlns="http://www.w3.org/2000/svg">
<g clip-path="url(#clip0_10_689)">
<path d="M44.225 15.8308C44.1654 14.2149 44.1031 12.2605 44.1031 10.3062H44.0617C43.6158 12.0213 43.0455 13.935 42.5167 15.5102L40.8498 20.7549H38.4312L36.9691 15.5687C36.5232 13.9732 36.0747 12.0595 35.73 10.3036H35.6885C35.6289 12.118 35.5459 14.192 35.4656 15.869L35.2011 20.9738H32.3366L33.2102 7.53241H37.3346L38.6748 12.0188C39.1207 13.5736 39.5277 15.2506 39.8336 16.8258H39.914C40.2795 15.271 40.7461 13.4947 41.2153 11.9984L42.6566 7.53241H46.7188L47.4498 20.9738H44.4427L44.2198 15.8283L44.225 15.8308Z" fill="#0088B1"/>
<path d="M57.9772 15.2939H52.9378V18.485H58.5657V20.9789H49.8503V7.53497H58.2805V10.0288H52.9378V12.8204H57.9772V15.2939Z" fill="#0088B1"/>
<path d="M60.681 7.73345C61.819 7.55277 63.3018 7.43317 64.8469 7.43317C67.4677 7.43317 69.1734 7.91158 70.4748 8.8684C71.898 9.90666 72.7897 11.5607 72.7897 13.935C72.7897 16.5077 71.8358 18.2814 70.5344 19.3782C69.0931 20.5539 66.8767 21.1137 64.1962 21.1137C62.5916 21.1137 61.4328 21.0145 60.681 20.9152V7.73345ZM63.7685 18.6835C64.0329 18.7446 64.4788 18.7446 64.8443 18.7446C67.6673 18.7649 69.5182 17.2482 69.5182 14.0368C69.5182 11.2452 67.8514 9.76924 65.1709 9.76924C64.4995 9.76924 64.0329 9.82777 63.7685 9.88885V18.6835Z" fill="#0088B1"/>
<path d="M77.9277 7.53497V20.9763H74.8402V7.53497H77.9277Z" fill="#0088B1"/>
<path d="M83.8408 20.9763L79.452 7.53497H82.8453L84.5122 13.2199C84.9788 14.8358 85.4065 16.35 85.7306 18.027H85.7928C86.1376 16.411 86.5653 14.8155 87.0319 13.281L88.7791 7.53752H92.0714L87.4596 20.9789H83.8434L83.8408 20.9763Z" fill="#0088B1"/>
<path d="M101.678 15.2939H96.639V18.485H102.267V20.9789H93.5516V7.53497H101.982V10.0288H96.639V12.8204H101.678V15.2939Z" fill="#0088B1"/>
<path d="M104.38 7.71565C105.375 7.55533 106.837 7.43573 108.504 7.43573C110.536 7.43573 111.957 7.73601 112.932 8.4918C113.764 9.13053 114.212 10.0874 114.212 11.3241C114.212 13.0189 112.973 14.1971 111.794 14.6145V14.6755C112.748 15.0547 113.277 15.9326 113.621 17.1694C114.049 18.7039 114.453 20.4597 114.718 20.9789H111.547C111.345 20.5793 110.998 19.5029 110.614 17.8488C110.228 16.154 109.64 15.7138 108.359 15.696H107.444V20.9814H104.377V7.71565H104.38ZM107.449 13.4973H108.667C110.212 13.4973 111.125 12.739 111.125 11.5633C111.125 10.3876 110.272 9.70819 108.849 9.70819C108.097 9.70819 107.669 9.7489 107.446 9.80743V13.4973H107.449Z" fill="#0088B1"/>
<path d="M116.53 17.8463C117.341 18.2662 118.643 18.6835 119.962 18.6835C121.385 18.6835 122.137 18.1058 122.137 17.2279C122.137 16.35 121.486 15.9123 119.84 15.3524C117.564 14.5559 116.061 13.3192 116.061 11.3648C116.061 9.072 118.031 7.33649 121.24 7.33649C122.803 7.33649 123.921 7.63677 124.735 8.01339L124.042 10.4462C123.514 10.1866 122.518 9.80743 121.199 9.80743C119.879 9.80743 119.208 10.4258 119.208 11.1027C119.208 11.9603 119.96 12.3395 121.748 12.9985C124.167 13.8765 125.284 15.1132 125.284 17.0065C125.284 19.2612 123.537 21.1748 119.778 21.1748C118.212 21.1748 116.67 20.7549 115.897 20.3376L116.527 17.8437L116.53 17.8463Z" fill="#0088B1"/>
<path d="M130.588 17.5256L129.613 20.9763H126.425L130.591 7.53497H134.653L138.92 20.9763H135.568L134.51 17.5256H130.591H130.588ZM134.062 15.2532L133.209 12.4005C132.965 11.604 132.721 10.6065 132.519 9.80743H132.478C132.276 10.6039 132.071 11.6218 131.848 12.4005L131.036 15.2532H134.064H134.062Z" fill="#0088B1"/>
<path d="M140.745 7.53497H143.832V18.4239H149.276V20.9763H140.742V7.53497H140.745Z" fill="#0088B1"/>
<path d="M48.3649 28.0761H47.3565L48.212 24.0732H46.7758L46.9469 23.2691H50.8043L50.6332 24.0732H49.2178L48.3649 28.0761Z" fill="#0088B1"/>
<path d="M50.9702 24.5949H51.8645L51.722 25.2693C52.0564 24.7654 52.4167 24.5109 52.8081 24.5109C52.9455 24.5109 53.0933 24.544 53.2514 24.6127L52.8833 25.3838C52.7978 25.3532 52.7045 25.338 52.6059 25.338C52.44 25.338 52.2741 25.399 52.103 25.5212C51.9319 25.6433 51.7997 25.8062 51.7038 26.0123C51.6079 26.2159 51.5146 26.5416 51.4213 26.9844L51.1879 28.0761H50.2288L50.9702 24.5949Z" fill="#0088B1"/>
<path d="M53.6792 24.5949H54.6383L54.2002 26.6562C54.1458 26.903 54.1199 27.0582 54.1199 27.1193C54.1199 27.2211 54.1587 27.3051 54.2339 27.3789C54.3091 27.4527 54.4076 27.4883 54.5243 27.4883C54.6098 27.4883 54.6928 27.473 54.7757 27.4399C54.8587 27.4069 54.9416 27.361 55.0298 27.2949C55.1153 27.2313 55.1957 27.1575 55.2631 27.0735C55.3331 26.9895 55.3979 26.8801 55.4575 26.7452C55.499 26.646 55.5456 26.4806 55.5949 26.2541L55.95 24.5949H56.9092L56.1678 28.0761H55.2734L55.3745 27.6053C54.9831 27.9743 54.5554 28.1601 54.0965 28.1601C53.8036 28.1601 53.5755 28.0787 53.4096 27.9133C53.2437 27.7504 53.1581 27.529 53.1581 27.2542C53.1581 27.1346 53.197 26.8954 53.2722 26.5365L53.6869 24.5949H53.6792Z" fill="#0088B1"/>
<path d="M56.9973 27.1015L57.9254 26.9564C58.0083 27.1498 58.1094 27.2847 58.2339 27.3636C58.3557 27.4425 58.5242 27.4832 58.7342 27.4832C58.9442 27.4832 59.1282 27.4349 59.2578 27.3382C59.3486 27.272 59.3952 27.1931 59.3952 27.099C59.3952 27.0353 59.3719 26.9794 59.3252 26.9285C59.276 26.8801 59.1438 26.8216 58.9286 26.7503C58.3505 26.562 57.9902 26.4144 57.8528 26.305C57.6376 26.1345 57.5288 25.9106 57.5288 25.6357C57.5288 25.3609 57.6325 25.1242 57.8424 24.9232C58.1328 24.6458 58.5683 24.5059 59.1412 24.5059C59.5974 24.5059 59.9422 24.5873 60.1755 24.7527C60.4088 24.9156 60.5566 25.1395 60.6188 25.4194L59.7322 25.5696C59.6856 25.4423 59.6104 25.3482 59.5041 25.2846C59.3615 25.2006 59.1904 25.1573 58.9908 25.1573C58.7912 25.1573 58.646 25.1904 58.5579 25.2566C58.4698 25.3227 58.4257 25.3965 58.4257 25.483C58.4257 25.5696 58.4698 25.6434 58.5605 25.6993C58.6149 25.735 58.7964 25.796 59.0971 25.8826C59.5637 26.0149 59.8774 26.1472 60.0355 26.277C60.2585 26.4577 60.3699 26.6765 60.3699 26.9335C60.3699 27.2644 60.23 27.5494 59.9448 27.7937C59.6596 28.038 59.263 28.1576 58.7497 28.1576C58.2365 28.1576 57.8424 28.066 57.5625 27.8802C57.2825 27.6944 57.0932 27.4349 56.9921 27.1015H56.9973Z" fill="#0088B1"/>
<path d="M61.1658 25.2922L61.3135 24.5949H61.7802L61.8968 24.0376L62.996 23.3887L62.7393 24.5949H63.3226L63.1748 25.2922H62.5864L62.2753 26.7503C62.2209 27.015 62.1923 27.1651 62.1923 27.2033C62.1923 27.2746 62.2157 27.3305 62.2623 27.3713C62.309 27.412 62.3945 27.4323 62.5164 27.4323C62.5579 27.4323 62.6641 27.4247 62.8326 27.4094L62.6823 28.1067C62.5164 28.1398 62.3479 28.155 62.1742 28.155C61.8346 28.155 61.5909 28.0914 61.4354 27.9642C61.2798 27.8369 61.2047 27.6588 61.2047 27.4323C61.2047 27.3255 61.2461 27.0786 61.3291 26.6918L61.6272 25.2922H61.1632H61.1658Z" fill="#0088B1"/>
<path d="M67.3588 25.7019C67.3588 25.9716 67.2629 26.2006 67.0711 26.3889C66.8792 26.5773 66.6459 26.6714 66.3737 26.6714C66.1015 26.6714 65.8656 26.5773 65.6738 26.3864C65.482 26.1955 65.3861 25.9691 65.3861 25.7019C65.3861 25.4347 65.482 25.2082 65.6738 25.0173C65.8656 24.829 66.099 24.7349 66.3737 24.7349C66.6485 24.7349 66.8767 24.829 67.0711 25.0173C67.2629 25.2056 67.3588 25.4347 67.3588 25.7019Z" fill="#0088B1"/>
<path d="M71.5376 28.0761H70.5292L71.3847 24.0732H69.9485L70.1196 23.2691H73.977L73.8059 24.0732H72.3905L71.5376 28.0761Z" fill="#0088B1"/>
<path d="M74.1429 24.5949H75.0373L74.8947 25.2693C75.2291 24.7654 75.5894 24.5109 75.9809 24.5109C76.1183 24.5109 76.266 24.544 76.4241 24.6127L76.056 25.3838C75.9705 25.3532 75.8772 25.338 75.7787 25.338C75.6128 25.338 75.4468 25.399 75.2758 25.5212C75.1047 25.6433 74.9724 25.8062 74.8765 26.0123C74.7806 26.2159 74.6873 26.5416 74.594 26.9844L74.3607 28.0761H73.4015L74.1429 24.5949Z" fill="#0088B1"/>
<path d="M77.4688 25.5823L76.533 25.5034C76.6393 25.1929 76.826 24.9512 77.093 24.7756C77.36 24.6 77.7125 24.5135 78.1506 24.5135C78.5887 24.5135 78.9439 24.6026 79.1616 24.7832C79.3794 24.9639 79.4883 25.1828 79.4883 25.4449C79.4883 25.5492 79.4779 25.6612 79.4598 25.7782C79.4416 25.8953 79.3742 26.2057 79.2601 26.7096C79.1668 27.1244 79.1202 27.4145 79.1202 27.5825C79.1202 27.73 79.1461 27.8955 79.2005 28.0787H78.2699C78.231 27.9514 78.2077 27.8217 78.1999 27.6842C78.0599 27.8369 77.8992 27.954 77.7151 28.0354C77.5337 28.1168 77.3496 28.1576 77.163 28.1576C76.87 28.1576 76.6263 28.0634 76.4345 27.8751C76.2427 27.6868 76.1468 27.4425 76.1468 27.1448C76.1468 26.8114 76.2531 26.5467 76.463 26.3482C76.673 26.1498 77.0489 26.0302 77.5907 25.9869C78.0469 25.9487 78.3528 25.9055 78.5058 25.852C78.5447 25.7197 78.5654 25.6154 78.5654 25.5365C78.5654 25.4372 78.5239 25.3507 78.441 25.2845C78.358 25.2158 78.2362 25.1828 78.0729 25.1828C77.9018 25.1828 77.767 25.2184 77.6659 25.2871C77.5674 25.3558 77.5 25.455 77.4637 25.5797L77.4688 25.5823ZM78.3813 26.4526C78.3243 26.4679 78.2465 26.4831 78.1506 26.4958C77.6685 26.5518 77.3548 26.6358 77.2096 26.7452C77.1059 26.8241 77.0515 26.931 77.0515 27.0633C77.0515 27.1727 77.0904 27.2644 77.1707 27.3407C77.2511 27.417 77.3574 27.4527 77.487 27.4527C77.6322 27.4527 77.767 27.417 77.8966 27.3483C78.0262 27.2796 78.1195 27.1906 78.1843 27.0837C78.2491 26.9743 78.3036 26.8063 78.3528 26.5773L78.3788 26.4526H78.3813Z" fill="#0088B1"/>
<path d="M80.6755 24.5949H81.5829L81.4895 25.0479C81.7177 24.8545 81.9276 24.7196 82.1247 24.6356C82.3217 24.5542 82.5291 24.5135 82.7468 24.5135C83.0371 24.5135 83.2679 24.5949 83.4364 24.7603C83.6049 24.9232 83.6878 25.142 83.6878 25.4118C83.6878 25.5339 83.6515 25.7655 83.5763 26.1065L83.159 28.0761H82.1998L82.6198 26.0989C82.682 25.8037 82.7131 25.6281 82.7131 25.5721C82.7131 25.4525 82.6768 25.3583 82.6042 25.2896C82.5316 25.2209 82.4305 25.1853 82.3009 25.1853C82.1609 25.1853 82.0054 25.2438 81.8343 25.3583C81.6632 25.4754 81.5284 25.6281 81.4299 25.8164C81.3573 25.9513 81.2796 26.2286 81.1888 26.646L80.8855 28.0761H79.9264L80.6678 24.5949H80.6755Z" fill="#0088B1"/>
<path d="M83.9756 27.1015L84.9036 26.9564C84.9866 27.1498 85.0877 27.2847 85.2121 27.3636C85.3339 27.4425 85.5024 27.4832 85.7124 27.4832C85.9224 27.4832 86.1064 27.4349 86.2361 27.3382C86.3268 27.272 86.3735 27.1931 86.3735 27.099C86.3735 27.0353 86.3501 26.9794 86.3035 26.9285C86.2542 26.8801 86.122 26.8216 85.9068 26.7503C85.3288 26.562 84.9684 26.4144 84.831 26.305C84.6159 26.1345 84.507 25.9106 84.507 25.6357C84.507 25.3609 84.6107 25.1242 84.8207 24.9232C85.111 24.6458 85.5439 24.5059 86.1194 24.5059C86.5757 24.5059 86.9204 24.5873 87.1537 24.7527C87.3871 24.9156 87.5348 25.1395 87.597 25.4194L86.713 25.5696C86.6664 25.4423 86.5912 25.3482 86.4849 25.2846C86.3423 25.2006 86.1713 25.1573 85.9717 25.1573C85.772 25.1573 85.6269 25.1904 85.5387 25.2566C85.4506 25.3227 85.4065 25.3965 85.4065 25.483C85.4065 25.5696 85.4506 25.6434 85.5387 25.6993C85.5932 25.735 85.7746 25.796 86.0753 25.8826C86.542 26.0149 86.8556 26.1472 87.0138 26.277C87.2367 26.4577 87.3482 26.6765 87.3482 26.9335C87.3482 27.2644 87.2056 27.5494 86.923 27.7937C86.6405 28.038 86.2413 28.1576 85.728 28.1576C85.2147 28.1576 84.8207 28.066 84.5407 27.8802C84.2607 27.6944 84.0715 27.4349 83.9704 27.1015H83.9756Z" fill="#0088B1"/>
<path d="M88.6132 24.5949H89.5205L89.4428 24.9512C89.6372 24.7934 89.8186 24.6814 89.9871 24.6127C90.1556 24.544 90.3371 24.5109 90.5315 24.5109C90.9022 24.5109 91.2029 24.6356 91.4285 24.8875C91.654 25.1395 91.7681 25.5136 91.7681 26.0123C91.7681 26.6409 91.5736 27.1702 91.1848 27.6028C90.8504 27.9718 90.4563 28.1575 90.0001 28.1575C89.5439 28.1575 89.1757 27.9718 88.9347 27.5977L88.551 29.4045H87.5918L88.6132 24.5949ZM89.1913 26.59C89.1913 26.8623 89.2587 27.0709 89.3935 27.2211C89.5283 27.3712 89.6864 27.445 89.8705 27.445C90.0286 27.445 90.1816 27.389 90.3267 27.2771C90.4745 27.1651 90.5963 26.9768 90.6923 26.7172C90.7882 26.4577 90.8374 26.2134 90.8374 25.992C90.8374 25.7324 90.7726 25.5314 90.6482 25.394C90.5212 25.2565 90.3604 25.1853 90.1634 25.1853C89.982 25.1853 89.8135 25.2489 89.6631 25.3761C89.5127 25.5034 89.3961 25.6917 89.3131 25.9411C89.2302 26.1905 89.1887 26.4068 89.1887 26.5925L89.1913 26.59Z" fill="#0088B1"/>
<path d="M93.4323 25.5823L92.4965 25.5034C92.6028 25.1929 92.7894 24.9512 93.0564 24.7756C93.3235 24.6 93.676 24.5135 94.1141 24.5135C94.5522 24.5135 94.9074 24.6026 95.1251 24.7832C95.3429 24.9639 95.4517 25.1828 95.4517 25.4449C95.4517 25.5492 95.4414 25.6612 95.4232 25.7782C95.4051 25.8953 95.3377 26.2057 95.2236 26.7096C95.1303 27.1244 95.0836 27.4145 95.0836 27.5825C95.0836 27.73 95.1096 27.8955 95.164 28.0787H94.2334C94.1945 27.9514 94.1711 27.8217 94.1634 27.6842C94.0234 27.8369 93.8627 27.954 93.6786 28.0354C93.4971 28.1168 93.3131 28.1576 93.1264 28.1576C92.8335 28.1576 92.5898 28.0634 92.398 27.8751C92.2062 27.6868 92.1103 27.4425 92.1103 27.1448C92.1103 26.8114 92.2165 26.5467 92.4265 26.3482C92.6365 26.1498 93.0124 26.0302 93.5542 25.9869C94.0104 25.9487 94.3163 25.9055 94.4693 25.852C94.5081 25.7197 94.5289 25.6154 94.5289 25.5365C94.5289 25.4372 94.4874 25.3507 94.4045 25.2845C94.3215 25.2158 94.1997 25.1828 94.0363 25.1828C93.8652 25.1828 93.7304 25.2184 93.6293 25.2871C93.5308 25.3558 93.4634 25.455 93.4271 25.5797L93.4323 25.5823ZM94.3448 26.4526C94.2878 26.4679 94.21 26.4831 94.1141 26.4958C93.6319 26.5518 93.3183 26.6358 93.1731 26.7452C93.0694 26.8241 93.015 26.931 93.015 27.0633C93.015 27.1727 93.0539 27.2644 93.1342 27.3407C93.2146 27.417 93.3209 27.4527 93.4505 27.4527C93.5957 27.4527 93.7305 27.417 93.8601 27.3483C93.9897 27.2796 94.083 27.1906 94.1478 27.0837C94.2126 26.9743 94.2671 26.8063 94.3163 26.5773L94.3422 26.4526H94.3448Z" fill="#0088B1"/>
<path d="M96.5716 24.5949H97.466L97.3234 25.2693C97.6578 24.7654 98.0181 24.5109 98.4096 24.5109C98.547 24.5109 98.6947 24.544 98.8529 24.6127L98.4848 25.3838C98.3992 25.3532 98.3059 25.338 98.2074 25.338C98.0415 25.338 97.8756 25.399 97.7045 25.5212C97.5334 25.6433 97.4012 25.8062 97.3053 26.0123C97.2093 26.2159 97.116 26.5416 97.0227 26.9844L96.7894 28.0761H95.8302L96.5716 24.5949Z" fill="#0088B1"/>
<path d="M102 26.6282H99.5943C99.5943 26.6663 99.5917 26.6943 99.5917 26.7121C99.5917 26.9437 99.6591 27.132 99.7939 27.272C99.9287 27.4145 100.092 27.4857 100.286 27.4857C100.605 27.4857 100.854 27.3229 101.03 26.9997L101.888 27.1396C101.723 27.4781 101.5 27.7326 101.22 27.9031C100.94 28.0736 100.626 28.1575 100.279 28.1575C99.8017 28.1575 99.4154 28.0099 99.1173 27.7122C98.8192 27.417 98.6688 27.0251 98.6688 26.5365C98.6688 26.048 98.8036 25.6357 99.0732 25.2642C99.4413 24.7603 99.965 24.5109 100.647 24.5109C101.08 24.5109 101.427 24.6433 101.681 24.9054C101.938 25.17 102.065 25.5365 102.065 26.0123C102.065 26.2388 102.041 26.4449 101.997 26.6256L102 26.6282ZM101.191 26.053C101.191 26.0123 101.194 25.9792 101.194 25.9589C101.194 25.7019 101.134 25.5085 101.017 25.3787C100.901 25.2489 100.74 25.1853 100.543 25.1853C100.346 25.1853 100.167 25.2591 100.012 25.4041C99.8535 25.5517 99.7472 25.768 99.6928 26.053H101.191Z" fill="#0088B1"/>
<path d="M103.104 24.5949H104.012L103.918 25.0479C104.146 24.8545 104.356 24.7196 104.553 24.6356C104.75 24.5542 104.958 24.5135 105.176 24.5135C105.466 24.5135 105.697 24.5949 105.865 24.7603C106.034 24.9232 106.117 25.142 106.117 25.4118C106.117 25.5339 106.08 25.7655 106.005 26.1065L105.588 28.0761H104.629L105.049 26.0989C105.111 25.8037 105.142 25.6281 105.142 25.5721C105.142 25.4525 105.106 25.3583 105.033 25.2896C104.96 25.2209 104.859 25.1853 104.73 25.1853C104.59 25.1853 104.434 25.2438 104.263 25.3583C104.092 25.4754 103.957 25.6281 103.859 25.8164C103.786 25.9513 103.708 26.2286 103.618 26.646L103.314 28.0761H102.355L103.096 24.5949H103.104Z" fill="#0088B1"/>
<path d="M108.932 26.7656L109.862 26.9132C109.709 27.3204 109.481 27.6283 109.181 27.842C108.88 28.0532 108.533 28.1601 108.136 28.1601C107.685 28.1601 107.325 28.0278 107.06 27.7631C106.796 27.4985 106.664 27.1346 106.664 26.6715C106.664 26.2923 106.744 25.936 106.905 25.6001C107.065 25.2642 107.306 24.9996 107.63 24.8062C107.954 24.6128 108.307 24.5161 108.693 24.5161C109.111 24.5161 109.445 24.6229 109.697 24.8367C109.948 25.0504 110.085 25.3329 110.116 25.6815L109.204 25.7757C109.181 25.5823 109.121 25.4373 109.023 25.3456C108.924 25.254 108.794 25.2082 108.634 25.2082C108.45 25.2082 108.276 25.2769 108.115 25.4118C107.954 25.5467 107.833 25.7503 107.747 26.02C107.662 26.2897 107.617 26.5417 107.617 26.7783C107.617 26.9845 107.669 27.1422 107.77 27.2542C107.872 27.3662 108.001 27.4222 108.154 27.4222C108.307 27.4222 108.455 27.3687 108.597 27.2593C108.74 27.1499 108.851 26.987 108.932 26.7682V26.7656Z" fill="#0088B1"/>
<path d="M110.63 24.5949H111.584L111.825 26.3304C111.884 26.7758 111.918 27.0888 111.926 27.2669C112.05 26.9106 112.221 26.534 112.439 26.1396L113.287 24.5949H114.303L112.113 28.4171C111.931 28.7352 111.791 28.9566 111.687 29.0838C111.584 29.2111 111.459 29.3103 111.314 29.3816C111.169 29.4528 110.993 29.491 110.788 29.491C110.583 29.491 110.358 29.4554 110.104 29.3867L110.186 28.6843C110.303 28.7174 110.415 28.7327 110.523 28.7327C110.816 28.7327 111.06 28.5138 111.247 28.0761L110.63 24.5949Z" fill="#0088B1"/>
<path d="M118.29 25.7019C118.29 25.9716 118.194 26.2006 118 26.3889C117.808 26.5773 117.575 26.6714 117.302 26.6714C117.03 26.6714 116.794 26.5773 116.602 26.3864C116.411 26.1955 116.315 25.9691 116.315 25.7019C116.315 25.4347 116.411 25.2082 116.602 25.0173C116.794 24.829 117.028 24.7349 117.302 24.7349C117.577 24.7349 117.805 24.829 118 25.0173C118.192 25.2056 118.29 25.4347 118.29 25.7019Z" fill="#0088B1"/>
<path d="M123.884 26.3457L124.9 26.4959C124.703 27.0353 124.405 27.4476 124.009 27.7326C123.612 28.0176 123.148 28.1601 122.617 28.1601C122.018 28.1601 121.549 27.982 121.212 27.6283C120.875 27.2745 120.706 26.7605 120.706 26.0887C120.706 25.5416 120.82 25.0428 121.046 24.5898C121.271 24.1369 121.585 23.7882 121.987 23.549C122.388 23.3098 122.824 23.1877 123.296 23.1877C123.825 23.1877 124.255 23.3276 124.582 23.605C124.908 23.8849 125.1 24.2641 125.16 24.7451L124.195 24.8367C124.141 24.5568 124.04 24.3532 123.887 24.2285C123.734 24.1038 123.532 24.0402 123.278 24.0402C123 24.0402 122.738 24.1241 122.497 24.2896C122.256 24.455 122.062 24.7145 121.917 25.0682C121.772 25.422 121.699 25.7731 121.699 26.1269C121.699 26.5111 121.792 26.8089 121.982 27.0175C122.171 27.2262 122.404 27.3331 122.684 27.3331C122.943 27.3331 123.184 27.2491 123.4 27.0837C123.617 26.9183 123.778 26.6714 123.887 26.3457H123.884Z" fill="#0088B1"/>
<path d="M126.624 25.5823L125.689 25.5034C125.795 25.1929 125.981 24.9512 126.248 24.7756C126.515 24.6 126.868 24.5135 127.306 24.5135C127.744 24.5135 128.099 24.6026 128.317 24.7832C128.535 24.9639 128.644 25.1828 128.644 25.4449C128.644 25.5492 128.633 25.6612 128.615 25.7782C128.597 25.8953 128.53 26.2057 128.416 26.7096C128.322 27.1244 128.276 27.4145 128.276 27.5825C128.276 27.73 128.302 27.8955 128.356 28.0787H127.425C127.386 27.9514 127.363 27.8217 127.355 27.6842C127.215 27.8369 127.055 27.954 126.871 28.0354C126.689 28.1168 126.505 28.1576 126.318 28.1576C126.026 28.1576 125.782 28.0634 125.59 27.8751C125.398 27.6868 125.302 27.4425 125.302 27.1448C125.302 26.8114 125.409 26.5467 125.619 26.3482C125.829 26.1498 126.204 26.0302 126.746 25.9869C127.202 25.9487 127.508 25.9055 127.661 25.852C127.7 25.7197 127.721 25.6154 127.721 25.5365C127.721 25.4372 127.679 25.3507 127.596 25.2845C127.514 25.2158 127.392 25.1828 127.228 25.1828C127.057 25.1828 126.922 25.2184 126.821 25.2871C126.723 25.3558 126.655 25.455 126.619 25.5797L126.624 25.5823ZM127.534 26.4526C127.477 26.4679 127.399 26.4831 127.304 26.4958C126.821 26.5518 126.508 26.6358 126.363 26.7452C126.259 26.8241 126.204 26.931 126.204 27.0633C126.204 27.1727 126.243 27.2644 126.324 27.3407C126.404 27.417 126.51 27.4527 126.64 27.4527C126.785 27.4527 126.92 27.417 127.049 27.3483C127.179 27.2796 127.272 27.1906 127.337 27.0837C127.402 26.9743 127.456 26.8063 127.506 26.5773L127.532 26.4526H127.534Z" fill="#0088B1"/>
<path d="M129.764 24.5949H130.658L130.515 25.2693C130.85 24.7654 131.21 24.5109 131.602 24.5109C131.739 24.5109 131.887 24.544 132.045 24.6127L131.677 25.3838C131.591 25.3532 131.498 25.338 131.399 25.338C131.233 25.338 131.068 25.399 130.896 25.5212C130.725 25.6433 130.593 25.8062 130.497 26.0123C130.401 26.2159 130.308 26.5416 130.215 26.9844L129.981 28.0761H129.022L129.764 24.5949Z" fill="#0088B1"/>
<path d="M135.189 26.6282H132.784C132.784 26.6663 132.781 26.6943 132.781 26.7121C132.781 26.9437 132.849 27.132 132.983 27.272C133.118 27.4145 133.281 27.4857 133.476 27.4857C133.795 27.4857 134.044 27.3229 134.22 26.9997L135.078 27.1396C134.912 27.4781 134.689 27.7326 134.409 27.9031C134.129 28.0736 133.815 28.1575 133.468 28.1575C132.991 28.1575 132.605 28.0099 132.307 27.7122C132.009 27.417 131.858 27.0251 131.858 26.5365C131.858 26.048 131.993 25.6357 132.263 25.2642C132.631 24.7603 133.154 24.5109 133.836 24.5109C134.269 24.5109 134.616 24.6433 134.871 24.9054C135.127 25.17 135.254 25.5365 135.254 26.0123C135.254 26.2388 135.231 26.4449 135.187 26.6256L135.189 26.6282ZM134.383 26.053C134.383 26.0123 134.386 25.9792 134.386 25.9589C134.386 25.7019 134.326 25.5085 134.209 25.3787C134.093 25.2489 133.932 25.1853 133.735 25.1853C133.538 25.1853 133.359 25.2591 133.204 25.4041C133.046 25.5517 132.939 25.768 132.885 26.053H134.383Z" fill="#0088B1"/>
<path d="M14.8048 10.6192C10.6908 7.65459 5.74983 5.77657 0.386322 5.38977L7.74072 17.9405C9.63052 15.0878 12.0336 12.6168 14.8074 10.6192H14.8048Z" fill="url(#paint0_linear_10_689)"/>
<path d="M21.8714 17.9405L29.2258 5.38977C23.8623 5.77657 18.9214 7.65459 14.8074 10.6192C17.5812 12.6168 19.9842 15.0903 21.874 17.9405H21.8714Z" fill="url(#paint1_linear_10_689)"/>
<path d="M7.74072 17.9404L14.8074 30L21.874 17.9404C19.9842 15.0878 17.5812 12.6168 14.8074 10.6192C12.0336 12.6168 9.63052 15.0903 7.74072 17.9404Z" fill="url(#paint2_linear_10_689)"/>
<path d="M14.8048 7.30342C16.3281 7.30342 17.563 5.66849 17.563 3.65171C17.563 1.63493 16.3281 0 14.8048 0C13.2815 0 12.0466 1.63493 12.0466 3.65171C12.0466 5.66849 13.2815 7.30342 14.8048 7.30342Z" fill="url(#paint3_linear_10_689)"/>
</g>
<defs>
<linearGradient id="paint0_linear_10_689" x1="0.386322" y1="11.6651" x2="14.8048" y2="11.6651" gradientUnits="userSpaceOnUse">
<stop stop-color="#31B0CD"/>
<stop offset="1" stop-color="#21B685"/>
</linearGradient>
<linearGradient id="paint1_linear_10_689" x1="14.8048" y1="11.6651" x2="29.2233" y2="11.6651" gradientUnits="userSpaceOnUse">
<stop stop-color="#31B0CD"/>
<stop offset="1" stop-color="#81D3EB"/>
</linearGradient>
<linearGradient id="paint2_linear_10_689" x1="14.8048" y1="11.828" x2="14.8048" y2="30.3842" gradientUnits="userSpaceOnUse">
<stop stop-color="#0077C0"/>
<stop offset="1" stop-color="#191057"/>
</linearGradient>
<linearGradient id="paint3_linear_10_689" x1="12.0466" y1="3.65171" x2="17.563" y2="3.65171" gradientUnits="userSpaceOnUse">
<stop stop-color="#31B0CD"/>
<stop offset="1" stop-color="#81D3EB"/>
</linearGradient>
<clipPath id="clip0_10_689">
<rect width="148.929" height="30" fill="white" transform="translate(0.386322)"/>
</clipPath>
</defs>
</svg>
